{"title":"Bahar S01E24-25.1080p.HDTV.X264.ARI Greek Subs","uid":15336366,"size":3369673328,"categoryP":"video","categoryS":"hd___tv_shows","magnet":"?xt=urn:btih:9721af906e875b15db5f5ac8beec511893c62264&amp;dn=Bahar+S01E24-25.1080p.HDTV.X264.ARI+Greek+Subs&amp;tr=udp%3A%2F%2Ftracker.leechers-paradise.org%3A6969&amp;tr=udp%3A%2F%2Fzer0day.ch%3A1337&amp;tr=udp%3A%2F%2Fopen.demonii.com%3A1337&amp;tr=udp%3A%2F%2Ftracker.coppersurfer.tk%3A6969&amp;tr=udp%3A%2F%2Fexodus.desync.com%3A6969","seeders":1,"leechers":0,"uploader":"Aris2015","files":1,"time":1468789181,"description":"TA EP EINAI 3GB, APO MENA 8A EINAI 3-5 MERES TO KA8E EP SEED, KAI META 8A DIAGRAFONTE APO TO PC MOU, PARAKALO KANTE SEED. \r\n\r\nDOWNLOAD AND ENJOY. KEEP IT FOR LONG SEEDING TO HELP OTHERS! \r\n\r\nThanks to encoder \r\nMovie Share \r\n\r\n\r\nGeneral\r\nComplete name               : Bahar.S01E24-25.HDTV.1080P.X264.ARI.mp4\r\nFormat                      : MPEG-4\r\nFormat profile              : Base Media\r\nCodec ID                    : isom (isom/iso2/avc1/mp41)\r\nFile size                   : 3.14 GiB\r\nDuration                    : 1h 26mn\r\nOverall bit rate            : 5 177 Kbps\r\nWriting application         : Lavf54.63.104\r\n\r\nVideo\r\nID                          : 1\r\nFormat                      : AVC\r\nFormat/Info                 : Advanced Video Codec\r\nFormat profile              :   \r\nFormat settings, CABAC      : Yes\r\nFormat settings, ReFrames   : 4 frames\r\nCodec ID                    : avc1\r\nCodec ID/Info               : Advanced Video Coding\r\nDuration                    : 1h 26mn\r\nBit rate                    : 4 980 Kbps\r\nWidth                       : 1 920 pixels\r\nHeight                      : 1 080 pixels\r\nDisplay aspect ratio        : 16:9\r\nFrame rate mode             : Constant\r\nFrame rate                  : 25.000 fps\r\nColor space                 : YUV\r\nChroma subsampling          : 4:2:0\r\nBit depth                   : 8 bits\r\nScan type                   : MBAFF\r\nScan type, store method     : Interleaved fields\r\nScan order                  : Top Field First\r\nBits/(Pixel*Frame)          : 0.096\r\nStream size                 : 3.02 GiB (96%)\r\n\r\nAudio\r\nID                          : 2\r\nFormat                      : MPEG Audio\r\nFormat version              : Version 1\r\nFormat profile              : Layer 2\r\nMode                        : Joint stereo\r\nMode extension              : Intensity Stereo + MS Stereo\r\nCodec ID                    : 6B\r\nDuration                    : 1h 26mn\r\nDuration_LastFrame          : -24ms\r\nBit rate mode               : Constant\r\nBit rate                    : 192 Kbps\r\nChannel(s)                  : 2 channels\r\nSampling rate               : 48.0 KHz\r\nCompression mode            : Lossy\r\nStream size                 : 119 MiB (4%)\r\nLanguage                    : Turkish\r\nDefault                     : Yes\r\n\r\nSCREENSHOT: \nhttp://imgur.com/ZoiexpO","torrent":{"xt":"urn:btih:9721af906e875b15db5f5ac8beec511893c62264","amp;dn":"Bahar+S01E24-25.1080p.HDTV.X264.ARI+Greek+Subs","amp;tr":["udp%3A%2F%2Ftracker.leechers-paradise.org%3A6969","udp%3A%2F%2Fzer0day.ch%3A1337","udp%3A%2F%2Fopen.demonii.com%3A1337","udp%3A%2F%2Ftracker.coppersurfer.tk%3A6969","udp%3A%2F%2Fexodus.desync.com%3A6969"],"infoHash":"9721af906e875b15db5f5ac8beec511893c62264","infoHashBuffer":{"type":"Buffer","data":[151,33,175,144,110,135,91,21,219,95,90,200,190,236,81,24,147,198,34,100]},"announce":[],"urlList":[]}}